<svg aria-hidden="true" style="position: absolute; width: 0; height: 0; overflow: hidden;" version="1.1" xmlns="http://www.w3.org/2000/svg" xmlns:xlink="http://www.w3.org/1999/xlink">
<defs>
<symbol id="search" viewBox="0 0 32 32">
<path d="M20 0.005c-6.627 0-12 5.373-12 12 0 2.026 0.507 3.933 1.395 5.608l-8.344 8.342 0.007 0.006c-0.652 0.641-1.058 1.529-1.058 2.516 0 1.949 1.58 3.529 3.529 3.529 0.985 0 1.874-0.406 2.515-1.059l-0.002-0.002 8.341-8.34c1.676 0.891 3.586 1.4 5.617 1.4 6.627 0 12-5.373 12-12s-5.373-12-12-12zM4.795 29.697c-0.322 0.334-0.768 0.543-1.266 0.543-0.975 0-1.765-0.789-1.765-1.764 0-0.498 0.21-0.943 0.543-1.266l-0.009-0.008 8.066-8.066c0.705 0.951 1.545 1.791 2.494 2.498l-8.063 8.063zM20 22.006c-5.522 0-10-4.479-10-10s4.478-10 10-10c5.521 0 10 4.478 10 10s-4.479 10-10 10zM20 5.005c0.275 0 0.5 0.224 0.5 0.5s-0.225 0.5-0.5 0.5c-3.314 0-6 2.687-6 6 0 0.276-0.224 0.5-0.5 0.5s-0.5-0.224-0.5-0.5c0-3.866 3.133-7 7-7z"></path>
</symbol>
<symbol id="home" viewBox="0 0 24 24">
<path d="M22.262 10.468c-3.39-2.854-9.546-8.171-9.607-8.225l-0.655-0.563-0.652 0.563c-0.062 0.053-6.221 5.368-9.66 8.248-0.438 0.394-0.688 0.945-0.688 1.509 0 1.104 0.896 2 2 2h1v6c0 1.104 0.896 2 2 2h12c1.104 0 2-0.896 2-2v-6h1c1.104 0 2-0.896 2-2 0-0.598-0.275-1.161-0.738-1.532zM14 20h-4v-5h4v5zM18 12l0.002 8c-0.002 0-3.002 0-3.002 0v-6h-6v6h-3v-8h-3.001c2.765-2.312 7.315-6.227 9.001-7.68 1.686 1.453 6.234 5.367 9 7.681 0 0-3 0-3-0.001z"></path>
</symbol>
<symbol id="sun" viewBox="0 0 24 24">
<path d="M18 12c0-1.657-0.673-3.158-1.757-4.243s-2.586-1.757-4.243-1.757-3.158 0.673-4.243 1.757-1.757 2.586-1.757 4.243 0.673 3.158 1.757 4.243 2.586 1.757 4.243 1.757 3.158-0.673 4.243-1.757 1.757-2.586 1.757-4.243zM16 12c0 1.105-0.447 2.103-1.172 2.828s-1.723 1.172-2.828 1.172-2.103-0.447-2.828-1.172-1.172-1.723-1.172-2.828 0.447-2.103 1.172-2.828 1.723-1.172 2.828-1.172 2.103 0.447 2.828 1.172 1.172 1.723 1.172 2.828zM11 1v2c0 0.552 0.448 1 1 1s1-0.448 1-1v-2c0-0.552-0.448-1-1-1s-1 0.448-1 1zM11 21v2c0 0.552 0.448 1 1 1s1-0.448 1-1v-2c0-0.552-0.448-1-1-1s-1 0.448-1 1zM3.513 4.927l1.42 1.42c0.391 0.391 1.024 0.391 1.414 0s0.391-1.024 0-1.414l-1.42-1.42c-0.391-0.391-1.024-0.391-1.414 0s-0.391 1.024 0 1.414zM17.653 19.067l1.42 1.42c0.391 0.391 1.024 0.391 1.414 0s0.391-1.024 0-1.414l-1.42-1.42c-0.391-0.391-1.024-0.391-1.414 0s-0.391 1.024 0 1.414zM1 13h2c0.552 0 1-0.448 1-1s-0.448-1-1-1h-2c-0.552 0-1 0.448-1 1s0.448 1 1 1zM21 13h2c0.552 0 1-0.448 1-1s-0.448-1-1-1h-2c-0.552 0-1 0.448-1 1s0.448 1 1 1zM4.927 20.487l1.42-1.42c0.391-0.391 0.391-1.024 0-1.414s-1.024-0.391-1.414 0l-1.42 1.42c-0.391 0.391-0.391 1.024 0 1.414s1.024 0.391 1.414 0zM19.067 6.347l1.42-1.42c0.391-0.391 0.391-1.024 0-1.414s-1.024-0.391-1.414 0l-1.42 1.42c-0.391 0.391-0.391 1.024 0 1.414s1.024 0.391 1.414 0z"></path>
</symbol>
<symbol id="filter" viewBox="0 0 24 24">
<path d="M19.845 4l-6.609 7.814c-0.147 0.173-0.236 0.399-0.236 0.646v6.922l-2-1v-5.922c0.001-0.227-0.077-0.457-0.236-0.646l-6.609-7.814zM22 2h-20c-0.552 0-1 0.448-1 1 0 0.247 0.089 0.473 0.236 0.646l7.764 9.18v6.174c0 0.389 0.222 0.727 0.553 0.894l4 2c0.494 0.247 1.095 0.047 1.342-0.447 0.072-0.146 0.106-0.301 0.105-0.447v-8.174l7.764-9.18c0.357-0.422 0.304-1.053-0.118-1.409-0.189-0.16-0.419-0.238-0.646-0.237z"></path>
</symbol>
<symbol id="moon" viewBox="0 0 23 28">
<path d="M19.719 20.359c-0.562 0.094-1.141 0.141-1.719 0.141-5.797 0-10.5-4.703-10.5-10.5 0-1.984 0.578-3.922 1.625-5.578-4.156 1.234-7.125 5.047-7.125 9.578 0 5.516 4.484 10 10 10 3.016 0 5.844-1.375 7.719-3.641zM22.891 19.031c-1.953 4.234-6.234 6.969-10.891 6.969-6.609 0-12-5.391-12-12 0-6.484 5.078-11.75 11.547-11.984 0.438-0.016 0.797 0.234 0.953 0.609 0.172 0.391 0.063 0.844-0.234 1.125-1.781 1.625-2.766 3.844-2.766 6.25 0 4.688 3.813 8.5 8.5 8.5 1.234 0 2.422-0.266 3.563-0.797 0.391-0.172 0.828-0.094 1.125 0.203s0.375 0.75 0.203 1.125z"></path>
</symbol>
</defs>
</svg>
